P1
# image tests perso
10 9
0011111111
0111010001
0100011111
0111110000
0000000000
1011111111
1100110001
1110111001
0111111111