P1
# image tests perso
7 9
0011100
0111010
0100011
0111110
0000000
1011110
1100110
1110111
0111111
