P1
# une ligne image = une ligne du fichier
7 9
1110000
1011100
1000010
1000001
1011110
1010010
1110010
0011110
0000000