P1
# une ligne image = une ligne du fichier
18 9
000000000000000000
000000000000000000
000000001000000000
000000010100000000
000000100010000000
000001000001000000
000010000000100000
000111111111110000
000000000000000000