P1
# une ligne image = une ligne du fichier
7 9
1110111
1011101
1000001
1000001
1000010
1000010
1110010
0011110
0000000